                        <svg className="h-[18px]" xmlns="http://www.w3.org/2000/svg" fill="none" viewBox="0 0 42 18"><path fill="#000" d="M34.836 1.505c-.648.075-1.132.226-1.617.502-.321.185-.57.375-.84.645a3.598 3.598 0 0 0-.492.6 3.934 3.934 0 0 0 0 4.33c.29.435.68.827 1.114 1.113l.127.083-.135.072a4.745 4.745 0 0 0-1.713 1.613 4.62 4.62 0 0 0 .232 5.212c.736.978 1.81 1.608 3.063 1.796.274.04.984.038 1.262-.005a4.62 4.62 0 0 0 3.845-3.537c.088-.396.103-.545.103-1.03 0-.52-.02-.693-.133-1.135a4.531 4.531 0 0 0-1.194-2.106 4.611 4.611 0 0 0-1.147-.845l-.096-.048.129-.087a4.026 4.026 0 0 0 1.085-1.099c.144-.214.335-.591.421-.833a4.81 4.81 0 0 0 .19-.754c.033-.217.046-.714.024-.928a3.883 3.883 0 0 0-1.136-2.418 3.943 3.943 0 0 0-2.21-1.112 6.832 6.832 0 0 0-.882-.029Zm.893 1.087a2.895 2.895 0 0 1 1.718 1.08 2.882 2.882 0 0 1-1.973 4.606c-.206.024-.629.01-.84-.03a2.9 2.9 0 0 1-1.908-1.286 2.887 2.887 0 0 1-.421-1.136 3.941 3.941 0 0 1 0-.819 2.893 2.893 0 0 1 2.24-2.404c.245-.052.328-.06.672-.054.284.005.354.01.512.043Zm-.033 6.818a3.543 3.543 0 0 1 2.657 5.072 3.549 3.549 0 0 1-2.339 1.88 2.969 2.969 0 0 1-.842.09c-.385 0-.55-.02-.881-.104a3.555 3.555 0 0 1-2.612-2.83 3.576 3.576 0 0 1 .438-2.39c.615-1.033 1.63-1.657 2.846-1.752.15-.012.545.007.733.034Zm3.546-7.466v.12h.343v.911h.269v-.91l.169-.004.167-.005.005-.116.004-.115h-.957v.12Zm1.18.456v.575h.254l.003-.38.004-.379.151.24c.084.133.158.244.166.245.009.003.085-.106.17-.242l.155-.247.005.38.003.383h.239v-1.15h-.266l-.15.24-.15.242-.03-.05a15.999 15.999 0 0 0-.146-.238l-.118-.187-.145-.004-.145-.005V2.4ZM4.285 4.871c-.936.07-1.743.365-2.446.896C.72 6.613.136 7.764.07 9.26c-.053 1.177.206 2.207.76 3.027.288.428.764.896 1.217 1.201a4.512 4.512 0 0 0 2.076.735 7.49 7.49 0 0 0 1.038 0c.252-.027.708-.1.908-.145.424-.096.961-.305 1.74-.677l.16-.077-.004-1.803-.004-1.802H5.304v.731l.915.005.914.003-.003 1.211-.004 1.213-.18.094c-.63.334-1.38.499-2.27.499a3.93 3.93 0 0 1-1.076-.127c-1.085-.277-2.005-1.123-2.417-2.224-.306-.814-.348-1.955-.106-2.838.306-1.117 1.093-2.002 2.136-2.405.634-.245 1.448-.313 2.247-.186a4.626 4.626 0 0 1 2.018.852c.055.04.103.073.109.073.005 0 .009-.194.009-.432v-.431l-.16-.106c-.563-.377-1.398-.66-2.22-.756a6.527 6.527 0 0 0-.931-.023Zm7.727.19c-.006.005-.01 1.047-.01 2.315V9.68l2.543-.003 2.542-.004V8.94l-2.124-.004-2.125-.003V5.797l2.125-.003 2.124-.004v-.732l-2.533-.004c-1.392-.002-2.538.001-2.542.007Zm8.831 4.477v4.488h.776v-3.648l.002-3.647.03.037c.018.02 1.238 1.662 2.712 3.647l2.68 3.611h.565V5.051h-.777l-.003 3.659-.004 3.658-2.717-3.659-2.715-3.658h-.549v4.487Zm-8.834 3.761c-.005.01-.006.176-.005.369l.005.35h5.078v-.731l-2.536-.005c-2.042-.003-2.538 0-2.542.017Z"></path></svg>
