                        <svg xmlns="http://www.w3.org/2000/svg" fill="none" viewBox="0 0 80 12"><path fill="#000" d="M11.531 2.572c-.985.353-1.793 1.192-2.187 2.26-1.016 2.706.083 5.867 2.27 6.468.55.156 1.566.125 2.115-.062.612-.207 1.482-.995 1.856-1.669.767-1.42.798-3.659.062-5.183-.747-1.555-2.582-2.363-4.116-1.814Zm1.814 1.068c1.483.56 2.074 3.483 1.11 5.463-.685 1.389-2.281 1.669-3.328.58-.653-.673-.902-1.575-.84-3.047.042-1.006.083-1.192.384-1.814.446-.892 1.016-1.296 1.835-1.296.3 0 .674.052.84.114Zm61.938-.974c.02.124.145.196.373.217l.332.031v.881c0 .86.01.882.238.85.207-.03.228-.093.26-.891l.03-.85h.301c.238 0 .311-.052.311-.207 0-.197-.073-.208-.943-.208-.84 0-.933.021-.902.177Zm2.053.207c0 .217-.031.705-.073 1.088-.052.664-.052.705.145.705.228 0 .332-.363.353-1.244.01-.528 0-.539.31.498.187.663.25.756.446.725.177-.02.27-.197.498-.86l.28-.83v.467c.02.85.124 1.244.332 1.244.228 0 .238-.135.134-1.379l-.072-.798h-.322c-.32 0-.342.031-.58.747l-.239.756-.248-.756c-.25-.736-.26-.747-.612-.747-.342 0-.352.01-.352.384ZM1.248 6.936V11.3h1.244V7.797l1.534-.042c1.317-.03 1.597-.072 2.053-.27.995-.445 1.513-1.243 1.513-2.3 0-1.058-.518-1.856-1.513-2.302-.488-.218-.705-.238-2.675-.27l-2.156-.04v4.363Zm4.385-3.058c.954.477 1.005 2 .083 2.571-.332.207-.54.238-1.793.27l-1.431.041V3.609l1.379.041c1.078.02 1.45.073 1.762.228Zm12.823 3.069V11.3h5.701v-1.14H19.7V2.593h-1.244v4.354Zm8.832 0L25.836 11.3h1.213l.404-1.275.405-1.264 1.555-.031 1.565-.031.435 1.306.436 1.295h.611c.332 0 .612-.03.612-.072 0-.042-.643-2-1.42-4.354l-1.43-4.281h-1.483l-1.451 4.354Zm2.757-1.203c.29.933.56 1.773.601 1.866.052.145-.072.166-1.202.166-.975 0-1.255-.031-1.213-.135.02-.062.29-.902.59-1.866.312-.953.581-1.73.623-1.73.03 0 .3.766.601 1.7Zm4.685 1.203v4.364l.602-.031.59-.031.032-1.897.02-1.908 1.327.042c1.535.041 1.783.145 2.094.84.104.238.239.829.3 1.305.063.477.198 1.037.291 1.244.187.374.187.374.943.405.747.03.892-.042.58-.3-.279-.229-.466-.716-.673-1.722-.103-.528-.259-1.099-.342-1.264-.197-.374-.84-.944-1.078-.944-.093-.01.052-.103.332-.207.933-.363 1.44-1.037 1.43-1.918-.01-.663-.155-1.047-.57-1.492-.663-.695-.995-.778-3.566-.82l-2.312-.04v4.374Zm4.416-3.12c.58.259.767.56.767 1.212 0 .384-.062.612-.227.82-.374.476-.757.57-2.312.57h-1.4v-2.8h1.38c1.108 0 1.45.042 1.792.197Zm4.188-.716v.518h2.385v6.531h-2.385v1.14h6.127l-.031-.549-.031-.539-1.213-.031-1.223-.031V3.629h2.487V2.593h-6.116v.518Zm8.294 0v.518h2.28c1.254 0 2.28.032 2.28.073 0 .052-1.057 1.565-2.332 3.38-2.187 3.099-2.332 3.327-2.332 3.762v.456h6.437l-.03-.549-.032-.539-2.384-.052-2.395-.052 2.364-3.317c2.166-3.058 2.353-3.348 2.363-3.763v-.435h-6.22v.518Zm8.935 3.805.031 4.333 2.882.03 2.871.021v-1.036h-4.56V7.258H65V6.22h-3.214V3.629h4.458V2.593h-5.702l.021 4.323Zm7.961.031V11.3h1.39c2.249 0 3.275-.32 4.208-1.306 1.845-1.949 1.4-5.608-.83-6.82-.87-.477-1.45-.581-3.182-.581h-1.586v4.354Zm3.338-3.214c.653.187 1.338.726 1.68 1.348.28.497.321.684.352 1.565.052 1.275-.124 1.96-.695 2.602-.58.653-1.264.933-2.467.995l-.964.052V3.629h.86c.467 0 1.027.052 1.234.104Z"></path></svg>
