      <svg xmlns="http://www.w3.org/2000/svg" width="40" height="40" fill="transparent" stroke-width="1.5"
                             viewBox="0 0 44 31" class="summaryInfoRow__icon___3Y-el"><path stroke="currentColor" stroke-linecap="round"
                              stroke-linejoin="round" d="M18.684 21.137c0 4.896-3.96 8.86-8.843 8.86-4.884 0-8.84-3.964-8.84-8.86 0-4.895 
                              3.956-8.86 8.84-8.86s8.843 3.965 8.843 8.86Zm0 0A3.32 3.32 0 0 1 22 17.814a3.322 3.322 0 0 1 3.315 3.323m0 
                              0c0 4.896 3.957 8.86 8.842 8.86 4.884 0 8.843-3.964 8.843-8.86 0-4.895-3.96-8.86-8.843-8.86-4.885 0-8.842 
                              3.965-8.842 8.86ZM1 20.937V4.324A3.32 3.32 0 0 1 4.315 1m38.684 19.937V4.324A3.324 3.324 0 0 0 39.683 1">
                                </path></svg>