                        <svg className="h-[18px]" xmlns="http://www.w3.org/2000/svg" fill="none" viewBox="0 0 78 16"><path fill="#000" d="M74.965 2.025c-.969.207-1.637 1.02-1.64 1.993-.002.3.034.5.137.766a2.037 2.037 0 0 0 1.378 1.214c.22.06.673.07.887.023a2.073 2.073 0 0 0 1.446-1.15c.114-.255.16-.456.173-.765.009-.218.002-.33-.028-.477a2.014 2.014 0 0 0-1.457-1.57c-.23-.06-.682-.079-.896-.034Zm.864.264c1.223.348 1.687 1.838.891 2.872a1.893 1.893 0 0 1-.866.594 1.887 1.887 0 0 1-1.412-.162c-.2-.118-.48-.388-.605-.586a1.837 1.837 0 0 1 .202-2.208 1.784 1.784 0 0 1 1.051-.564c.15-.023.57.006.739.054Z"></path><path fill="#000" d="M74.578 3.981v1.014h.341v-.73l.244.007.243.007.245.357.248.36h.205c.16 0 .2-.008.189-.03-.012-.014-.134-.19-.278-.387a5.473 5.473 0 0 1-.252-.364 8.22 8.22 0 0 1 .111-.054c.246-.114.364-.298.364-.562-.002-.264-.125-.448-.375-.564-.107-.05-.146-.052-.698-.06l-.587-.006v1.012Zm1.155-.662c.157.087.216.328.119.487-.085.139-.194.173-.585.184L74.92 4v-.738l.37.01c.301.006.383.013.444.047ZM4.049 2.257l-.25.034c-.1.014-.294.053-.432.09-1.206.302-2.067 1.086-2.35 2.132-.052.203-.059.257-.059.676 0 .384.007.486.048.664C1.3 7.108 2.332 7.799 4.65 8.29c.591.125.93.214 1.31.337 1.358.441 1.878 1.05 1.824 2.133-.06 1.144-.983 1.935-2.427 2.083-.67.068-1.623-.061-2.285-.31-.639-.24-1.371-.707-1.903-1.211-.057-.055-.114-.098-.128-.093-.03.01-.527.586-.527.611 0 .01.084.089.188.175 1.09.921 2.152 1.399 3.45 1.558.366.043 1.25.039 1.558-.011 1.176-.191 2.049-.726 2.538-1.553.361-.614.47-1.426.293-2.17a2.67 2.67 0 0 0-.318-.716c-.382-.555-1.058-.99-2.026-1.303-.342-.112-.674-.196-1.306-.335-2.049-.443-2.874-.957-3.07-1.908-.052-.266-.047-.702.012-.934.122-.473.409-.867.85-1.158.31-.207.7-.359 1.135-.439.298-.056 1.091-.054 1.437.003A4.723 4.723 0 0 1 7.57 4.083l.198.16.266-.33c.145-.182.255-.339.243-.346-.013-.009-.104-.08-.204-.154A5.732 5.732 0 0 0 6.46 2.53c-.573-.193-1.041-.264-1.785-.275a11.61 11.61 0 0 0-.625.002Zm7.106.521v.534h.978V2.244h-.978v.534Zm33.401 1.324-.006 1.291-.585.007-.587.005v.705l.587.004.584.007.012 2.877.014 2.876.05.194c.066.252.245.611.39.789.394.482 1.017.734 1.809.734.45 0 .796-.063 1.141-.209l.166-.068v-.744l-.164.068c-.682.282-1.384.294-1.928.028-.318-.155-.528-.426-.641-.837l-.053-.182-.006-2.77-.007-2.767h2.822v-.705h-2.82V2.812h-.773l-.005 1.29ZM18.03 5.223c-1.163.122-2.229.76-2.861 1.705-.726 1.085-.833 2.547-.273 3.746.657 1.407 2.226 2.294 3.83 2.167a4.47 4.47 0 0 0 .99-.198c.733-.262 1.415-.782 1.945-1.485.041-.057.087-.114.098-.125.011-.014.016.296.01.784-.01.683-.02.846-.06 1.058-.202 1.096-.816 1.842-1.801 2.19-1.082.382-2.518.227-3.705-.396a8.475 8.475 0 0 1-.795-.505c-.04-.027-.062-.002-.266.28-.123.17-.226.316-.23.327-.014.037.618.426.984.605a5.15 5.15 0 0 0 1.183.444c.503.127.794.163 1.367.177.53.012.8-.009 1.191-.089a4.14 4.14 0 0 0 1.483-.625c.643-.457 1.121-1.187 1.317-2.008.111-.462.111-.439.111-4.273V5.405h-.773l-.005.784-.006.785-.128-.166a4.276 4.276 0 0 0-1.016-.95 3.892 3.892 0 0 0-1.467-.59 5.25 5.25 0 0 0-1.123-.045Zm.739.75c.866.077 1.6.41 2.178.987.553.553.826 1.16.867 1.935.077 1.474-.958 2.736-2.563 3.12-.319.075-.95.098-1.262.043-1.156-.2-2.068-.957-2.43-2.014a2.88 2.88 0 0 1-.158-1.024c0-.425.034-.666.145-1.016.148-.469.385-.846.74-1.19.552-.534 1.275-.823 2.157-.861.04 0 .185.009.326.02Zm9.994-.748c-.996.095-1.794.578-2.358 1.424l-.139.211-.007-.728-.004-.727h-.774v8.05h.771l.01-2.509c.006-2.742.002-2.644.143-3.092.357-1.126 1.314-1.858 2.51-1.917.776-.039 1.444.19 1.929.66.345.333.561.756.693 1.355.046.211.048.277.055 2.858l.009 2.645h.794v-2.488c0-2.556-.01-2.884-.091-3.29-.185-.901-.68-1.617-1.415-2.047-.562-.33-1.357-.48-2.126-.405Zm40.144 0c-1.756.184-3.14 1.63-3.39 3.538-.04.3-.046.976-.012 1.258a4.36 4.36 0 0 0 .698 1.91 4.29 4.29 0 0 0 1.053 1.053c.434.287.907.484 1.4.587.287.059.965.082 1.304.045 1.019-.111 1.828-.511 2.59-1.28l.211-.216-.27-.239-.27-.241-.112.114a5.42 5.42 0 0 1-.676.56c-.37.25-.896.46-1.346.54-.341.062-.928.057-1.232-.009-1.121-.24-1.958-.982-2.338-2.074a5.367 5.367 0 0 1-.203-.905l-.01-.118h6.689l-.013-.496c-.019-.782-.146-1.35-.435-1.971-.67-1.43-2.071-2.222-3.638-2.056Zm.987.769c.532.12.944.347 1.31.72.493.505.846 1.328.932 2.174l.014.155H66.3l.013-.098c.071-.523.18-.903.373-1.3.444-.917 1.23-1.533 2.156-1.683.264-.043.79-.028 1.05.032ZM37.511 5.29a6.406 6.406 0 0 0-1.562.367c-.27.1-.71.284-.73.305-.007.007.264.673.28.689.004.004.08-.03.168-.073.368-.186.95-.387 1.349-.466a4.438 4.438 0 0 1 1.018-.098c.455.002.805.052 1.14.164.989.33 1.498 1.123 1.498 2.328 0 .157-.007.287-.013.287-.007 0-.112-.025-.232-.055-1.265-.318-2.822-.37-3.773-.13-1.14.292-1.87.947-2.104 1.884-.043.168-.05.263-.05.598.003.357.007.42.062.62.109.412.31.742.639 1.058.414.398.932.653 1.63.805.207.043.305.05.771.052.469 0 .567-.007.792-.052.868-.175 1.621-.623 2.144-1.274l.134-.165v1.32h.776l-.01-2.77c-.006-2.713-.009-2.772-.056-3.018-.214-1.107-.855-1.844-1.908-2.192-.405-.134-.748-.186-1.303-.195a8.17 8.17 0 0 0-.66.01Zm1.365 3.915c.486.043 1.203.166 1.724.297l.095.023v.505c0 .7-.055 1.014-.239 1.378-.232.46-.66.867-1.182 1.123-.955.471-2.113.496-2.952.066-.655-.336-.994-.866-.994-1.553 0-1.055.794-1.726 2.206-1.865.23-.022.971-.009 1.342.026ZM63.82 5.302a3.54 3.54 0 0 0-1.94.969c-.373.357-.62.682-.876 1.157l-.116.217v-2.24h-.773v8.05h.773v-1.701c0-.935.012-1.838.023-2.006.084-1.117.45-1.999 1.103-2.65.584-.586 1.33-.913 2.185-.959l.26-.014v-.857l-.22.002a3.966 3.966 0 0 0-.42.032ZM11.246 9.43v4.025h.796v-8.05h-.796V9.43Zm39.052-1.258.007 2.77.05.223c.266 1.162.946 1.958 1.963 2.299.393.132.602.159 1.18.159.468 0 .564-.005.766-.05.605-.132 1.078-.378 1.494-.778a3.78 3.78 0 0 0 .562-.682l.077-.125.007.732.004.735h.774v-8.05h-.771l-.01 2.517c-.006 2.272-.01 2.538-.047 2.713-.182.9-.7 1.605-1.458 1.985-.675.337-1.5.391-2.23.15-.799-.266-1.313-.884-1.529-1.84l-.059-.26-.007-2.634-.009-2.631h-.773l.01 2.767Z"></path></svg>
