                        <svg className="h-7" xmlns="http://www.w3.org/2000/svg" fill="none" viewBox="0 0 75 22"><g clip-path="url(#a)"><path fill="#000" fill-rule="evenodd" d="M8.69 4.853v-.967A.087.087 0 0 0 8.6 3.8H.09a.087.087 0 0 0-.09.086v.967a.087.087 0 0 0 .09.085h3.373v10.01a.086.086 0 0 0 .086.084h1.486a.083.083 0 0 0 .06-.024.084.084 0 0 0 .025-.06V4.938h3.485a.087.087 0 0 0 .085-.085Zm35.732-.518a.87.87 0 1 1 .965 1.447.87.87 0 0 1-.965-1.447Zm-33.35 2.28c.295.004.588.058.866.16a.06.06 0 0 1 .033.072l-.224.926a.061.061 0 0 1-.031.036.06.06 0 0 1-.047.002 2.231 2.231 0 0 0-.744-.11c-1.126 0-1.868.998-1.868 1.996v5.25c0 .047-.014.085-.06.085H7.59a.083.083 0 0 1-.06-.025.085.085 0 0 1-.024-.06V6.964a.084.084 0 0 1 .084-.084h1.19a.083.083 0 0 1 .083.079l.08.872a2.359 2.359 0 0 1 2.127-1.215Zm32.064 7.518c.007.01.012.023.015.036l.133.698a.099.099 0 0 1-.059.107 3.463 3.463 0 0 1-1.535.352c-1.302 0-2.624-.594-2.624-2.49l.014-8.146a.08.08 0 0 1 .024-.061.08.08 0 0 1 .06-.024h1.125a.084.084 0 0 1 .084.085l.194 2.188h2.25a.084.084 0 0 1 .084.084v.891a.084.084 0 0 1-.085.085h-2.138v4.756c0 1.538 1.052 1.939 2.355 1.406a.088.088 0 0 1 .075.007.09.09 0 0 1 .028.026Zm-11.817-6.49c-.818 0-1.217.365-1.217.905 0 .794.875 1.214 1.839 1.677 1.18.568 2.495 1.2 2.494 2.66 0 1.317-1.077 2.442-2.92 2.442a4.473 4.473 0 0 1-3.122-1.216.105.105 0 0 1 0-.14l.57-.73a.07.07 0 0 1 .1 0 3.251 3.251 0 0 0 2.353 1.006c.893 0 1.465-.421 1.465-1.125 0-.825-.866-1.235-1.82-1.686-1.173-.555-2.48-1.174-2.48-2.704 0-1.133.879-2.117 2.68-2.117a4.957 4.957 0 0 1 2.952.96.09.09 0 0 1 0 .125l-.48.731a.094.094 0 0 1-.131.017c-.688-.476-1.528-.805-2.283-.805Zm37.852 0c-.818 0-1.217.365-1.217.905 0 .794.875 1.214 1.838 1.677 1.18.567 2.49 1.197 2.485 2.655 0 1.318-1.076 2.443-2.92 2.443a4.472 4.472 0 0 1-3.122-1.216.107.107 0 0 1 0-.14l.572-.72a.07.07 0 0 1 .1 0 3.25 3.25 0 0 0 2.353 1.005c.892 0 1.464-.422 1.464-1.125 0-.826-.865-1.235-1.82-1.687-1.173-.555-2.48-1.173-2.48-2.703 0-1.134.88-2.118 2.681-2.118a4.957 4.957 0 0 1 2.952.96.091.091 0 0 1 .008.125l-.48.732a.095.095 0 0 1-.131.012c-.688-.476-1.528-.805-2.283-.805Zm-13.006 5.632a4.923 4.923 0 0 0 .087-4.449 4.898 4.898 0 0 0-1.38-1.714l-4.876 8.42a4.918 4.918 0 0 0 6.17-2.257ZM12.73 7.216a6.191 6.191 0 0 1 2.537-.594c2.163 0 3.207 1.118 3.21 3.075v5.269a.084.084 0 0 1-.025.06.082.082 0 0 1-.06.024h-1.054a.084.084 0 0 1-.082-.069l-.096-.353c-.523.422-1.383.671-2.138.671-1.993 0-3.189-1.01-3.189-2.738 0-1.658 1.285-2.71 3.42-2.71.572.013 1.142.09 1.698.231v-.64c0-1.08-.588-1.792-1.853-1.792a4.787 4.787 0 0 0-2.082.497.098.098 0 0 1-.14-.057l-.088-.297c-.043-.144-.086-.286-.124-.423a.128.128 0 0 1 .066-.154Zm2.764 6.98a2.943 2.943 0 0 0 1.46-.462l-.006-2.72a5.476 5.476 0 0 0-1.312-.167c-1.606 0-2.168.639-2.168 1.67 0 1.057.569 1.68 2.026 1.68Zm37.235-7.02a3.849 3.849 0 0 0-.888-.106c-2.184 0-3.77 1.643-3.77 3.84-.022.966.33 1.903.983 2.616l-.583 1.03a5.084 5.084 0 0 1-1.586-3.655c0-2.846 2.256-4.846 4.942-4.846.49 0 .977.073 1.445.217l-.543.904ZM35.967 4.335a.87.87 0 1 1 .964 1.447.87.87 0 0 1-.964-1.447Zm-11.65 2.26c-.928 0-1.986.342-2.654.888l-.1-.545a.083.083 0 0 0-.084-.078h-1.19a.084.084 0 0 0-.085.084v8.004a.085.085 0 0 0 .025.06.082.082 0 0 0 .06.024h1.422a.084.084 0 0 0 .06-.024.082.082 0 0 0 .024-.06V8.47a3.396 3.396 0 0 1 2.09-.718c1.249 0 1.856.576 1.856 1.82v5.375a.085.085 0 0 0 .024.06.083.083 0 0 0 .06.024h1.416a.083.083 0 0 0 .06-.024.082.082 0 0 0 .024-.06V9.416c0-1.828-1.193-2.82-3.008-2.82Zm37.89.019c-.928 0-1.985.343-2.652.887l-.101-.544a.084.084 0 0 0-.083-.08h-1.192a.085.085 0 0 0-.085.085v7.986a.085.085 0 0 0 .025.06.082.082 0 0 0 .06.024h1.417a.084.084 0 0 0 .06-.024.084.084 0 0 0 .024-.06V8.489a3.409 3.409 0 0 1 2.091-.718c1.247 0 1.854.578 1.854 1.828v5.354a.085.085 0 0 0 .052.079.09.09 0 0 0 .032.006h1.424a.085.085 0 0 0 .078-.052.083.083 0 0 0 .007-.033V9.442c0-1.832-1.19-2.828-3.011-2.828Zm-25.073.265h-1.38a.084.084 0 0 0-.084.084v7.984c0 .047.037.085.084.085h1.38a.084.084 0 0 0 .084-.085V6.963a.084.084 0 0 0-.084-.084Zm8.456 0h-1.38a.084.084 0 0 0-.085.084v7.984c0 .047.038.085.084.085h1.38a.084.084 0 0 0 .085-.085V6.963a.084.084 0 0 0-.084-.084Zm27.226.332h.28l.01.774h.219v-.767h.28v-.192h-.79v.185Zm1.214-.192h-.23v.959h.206v-.649l.264.422h.019l.265-.422v.649h.206v-.96h-.225l-.252.406-.253-.405Z" clip-rule="evenodd"></path><path fill="url(#b)" d="M45.626 21h1.168a.08.08 0 0 0 .071-.042l11.49-19.833a.084.084 0 0 0-.07-.125h-1.168a.08.08 0 0 0-.072.042l-11.49 19.834a.082.082 0 0 0 .072.124Z"></path></g><defs><linearGradient id="b" x1="46.166" x2="58.195" y1="11" y2="11" gradientUnits="userSpaceOnUse"><stop offset="0.051" stop-color="#00A0A3"></stop><stop offset="0.113" stop-color="#42A79B"></stop><stop offset="0.237" stop-color="#8BB882"></stop><stop offset="0.411" stop-color="#D7D444"></stop><stop offset="0.52" stop-color="#FFE600"></stop><stop offset="0.98" stop-color="#F1943B"></stop></linearGradient><clipPath id="a"><path fill="#fff" d="M0 1h74.799v20H0z"></path></clipPath></defs></svg>
