                        <svg className="h-3" xmlns="http://www.w3.org/2000/svg" fill="none" viewBox="0 0 80 10"><path fill="#000" d="M51.153.687h-4.138l-3.184.02v1.038h3.024v7.558h1.133V1.744h3.165V.687ZM38.74.63c-.672.105-1.55.586-1.966 1.059-1.681 1.965-1.445 5.593.472 7.057.624.472 1.248.67 2.079.67 1.275-.009 2.23-.557 2.777-1.596.492-.935.492-.926-.141-1.247l-.567-.283-.113.425c-.18.633-.605 1.228-1.03 1.445-.841.435-1.606.34-2.305-.274C36.5 6.611 36.5 3.4 37.936 2.133c.67-.586 1.493-.709 2.22-.33.369.188.888.821 1.03 1.265.066.208.142.378.151.378.151 0 .983-.614.983-.718 0-.274-.397-.916-.813-1.323-.67-.652-1.72-.944-2.768-.774ZM6.797 2.454 5.05 4.202l-1.72-1.72L1.601.754l-.396.406-.407.397 1.73 1.728 1.719 1.72-1.7 1.7C1.61 7.641.845 8.453.845 8.5c0 .057.16.265.359.454l.359.35L3.17 7.696c.878-.888 1.672-1.662 1.776-1.71.15-.094.397.114 1.89 1.606l1.719 1.71.396-.406.397-.397-1.7-1.7c-.936-.935-1.7-1.738-1.7-1.795 0-.047.651-.737 1.445-1.53.784-.785 1.55-1.55 1.69-1.701l.265-.274-.406-.397-.397-.397-1.748 1.748Zm3.591-1.228v.52h3.022v7.558h1.228v-7.56h3.024V.706h-7.274v.52Zm8.88 3.769v4.308h1.134V5.505l1.35.038c1.238.029 1.37.048 1.664.255.387.284.633.822.718 1.569.084.812.236 1.474.387 1.72.123.198.208.216.888.216.416 0 .756-.028.756-.056 0-.029-.104-.142-.227-.236-.265-.208-.576-.964-.67-1.644-.17-1.134-.568-1.843-1.21-2.126l-.378-.17.378-.104c.897-.246 1.54-1.02 1.54-1.861 0-1.04-.482-1.738-1.464-2.116-.52-.199-.756-.227-2.712-.265L19.268.687v4.308Zm4.544-2.985c.406.246.605.661.595 1.228-.009.5-.245.85-.755 1.106-.312.16-.596.198-1.805.217l-1.445.038V1.727l1.54.037c1.398.029 1.558.048 1.87.246ZM29.991.82c-.16.415-2.787 8.351-2.787 8.408 0 .047.255.075.558.075h.557l.425-1.256.416-1.247h3.098l.416 1.247.416 1.256h.595c.33 0 .605-.028.605-.075 0-.038-.633-1.956-1.398-4.27L31.483.754l-.718-.029c-.53-.019-.747.01-.775.095Zm1.351 3.08c.321.973.586 1.804.586 1.842 0 .038-.558.066-1.238.066-1.077 0-1.228-.019-1.18-.142.028-.085.292-.916.595-1.842.292-.935.557-1.7.595-1.7.028 0 .311.802.642 1.776Zm21.37-2.674v.52h2.456v6.519h-2.456v1.038h6.046v-1.04h-2.362V1.746h2.362V.705h-6.046v.52ZM60.573.82c.028.066.67 2.002 1.436 4.308l1.398 4.185.718-.028.709-.029 1.407-4.204C67.007 2.737 67.64.82 67.64.782c0-.047-.265-.076-.586-.076h-.595l-1.087 3.449c-1.077 3.41-1.18 3.722-1.256 3.637-.02-.029-.548-1.625-1.162-3.543L61.83.753l-.652-.028c-.501-.019-.633 0-.605.095Zm9.239 4.185v4.298h5.669V8.264h-4.44V5.336h3.125l-.028-.501-.028-.491-1.53-.029-1.54-.019v-2.55h4.345V.706h-5.574v4.299Zm7.7-4.166c-.642.274-.973.973-.87 1.776.067.51.313.831.842 1.096.595.302 1.03.217 1.559-.303.49-.49.614-1.058.368-1.7-.18-.482-.359-.652-.84-.86-.416-.17-.681-.18-1.059-.01Zm1.19.274c.964.642.785 2.21-.283 2.531-.5.152-.822.048-1.257-.377-.33-.34-.359-.407-.359-.907 0-.652.227-1.087.69-1.314.425-.207.832-.189 1.21.067Z"></path><path fill="#000" d="M77.464 2.265c0 .652.029.803.142.803.095 0 .142-.094.142-.283 0-.218.047-.284.18-.284.103 0 .264.123.358.284.085.15.246.283.34.283.161 0 .161-.019-.028-.293-.189-.264-.198-.293-.057-.453.388-.425.076-.86-.614-.86h-.463v.803Zm1.011-.368c.076.198-.198.415-.51.415-.18 0-.217-.047-.217-.283 0-.265.028-.284.33-.284.227 0 .36.048.397.152Z"></path></svg>
