<svg xmlns="http://www.w3.org/2000/svg" version="1.1" xmlns:xlink="http://www.w3.org/1999/xlink" width="512" height="512" x="0" y="0" viewBox="0 0 512 512" style="enable-background:new 0 0 512 512" xml:space="preserve" class=""><g><path d="M304 96H112c-8.832 0-16 7.168-16 16s7.168 16 16 16h192c8.832 0 16-7.168 16-16s-7.168-16-16-16zM240 160H112c-8.832 0-16 7.168-16 16s7.168 16 16 16h128c8.832 0 16-7.168 16-16s-7.168-16-16-16z" fill="#000000" opacity="1" data-original="#000000" class=""></path><path d="M352 0H64C28.704 0 0 28.704 0 64v320c0 6.208 3.584 11.872 9.216 14.496A16.232 16.232 0 0 0 16 400c3.68 0 7.328-1.28 10.24-3.712L117.792 320H352c35.296 0 64-28.704 64-64V64c0-35.296-28.704-64-64-64zm32 256c0 17.632-14.336 32-32 32H112c-3.744 0-7.36 1.312-10.24 3.712L32 349.856V64c0-17.632 14.336-32 32-32h288c17.664 0 32 14.368 32 32v192z" fill="#000000" opacity="1" data-original="#000000" class=""></path><path d="M448 128c-8.832 0-16 7.168-16 16s7.168 16 16 16c17.664 0 32 14.368 32 32v270.688l-54.016-43.2A16.12 16.12 0 0 0 416 416H192c-17.664 0-32-14.368-32-32v-16c0-8.832-7.168-16-16-16s-16 7.168-16 16v16c0 35.296 28.704 64 64 64h218.368l75.616 60.512A16.158 16.158 0 0 0 496 512c2.336 0 4.704-.512 6.944-1.568A16.05 16.05 0 0 0 512 496V192c0-35.296-28.704-64-64-64z" fill="#000000" opacity="1" data-original="#000000" class=""></path></g></svg>