<svg width="11" height="20" viewBox="0 0 11 20" fill="none" xmlns="http://www.w3.org/2000/svg">
<path d="M9.87995 8H8.23329H7.6452V7.35484V5.35484V4.70968H8.23329H9.46829C9.79174 4.70968 10.0564 4.45161 10.0564 4.06452V0.645161C10.0564 0.290323 9.82114 0 9.46829 0H7.32175C4.99878 0 3.38153 1.80645 3.38153 4.48387V7.29032V7.93548H2.79344H0.793924C0.38226 7.93548 0 8.29032 0 8.80645V11.129C0 11.5806 0.323451 12 0.793924 12H2.73463H3.32272V12.6452V19.129C3.32272 19.5806 3.64617 20 4.11665 20H6.88068C7.05711 20 7.20413 19.9032 7.32175 19.7742C7.43937 19.6452 7.52758 19.4194 7.52758 19.2258V12.6774V12.0323H8.14508H9.46829C9.85055 12.0323 10.1446 11.7742 10.2034 11.3871V11.3548V11.3226L10.6151 9.09677C10.6445 8.87097 10.6151 8.6129 10.4386 8.35484C10.3798 8.19355 10.1152 8.03226 9.87995 8Z" fill="white"/>
</svg>
