<svg width="16" height="18" viewBox="0 0 16 18" fill="none" xmlns="http://www.w3.org/2000/svg">
<path d="M15.233 8.17132H7.96434V10.643H13.1816C12.903 14.0743 10.4717 15.5574 8.1163 15.5574C5.12778 15.5574 2.46851 12.8821 2.46851 9.01461C2.46851 5.29251 5.00115 2.47185 8.1163 2.47185C10.497 2.47185 11.9406 4.24567 11.9406 4.24567L13.4095 2.47185C13.4095 2.47185 11.4341 0.000145544 8.01499 0.000145544C3.50689 -0.0289334 0.0625 4.30383 0.0625 8.98553C0.0625 13.5218 3.30428 18 8.09097 18C12.3205 18 15.3597 14.7141 15.3597 9.79974C15.385 8.78198 15.233 8.17132 15.233 8.17132Z" fill="white"/>
</svg>
