<svg width="20" height="16" viewBox="0 0 20 16" fill="none" xmlns="http://www.w3.org/2000/svg">
<path d="M17.5564 2.75538L18.7025 1.25245C19.0343 0.845401 19.1248 0.53229 19.1549 0.375734C18.2501 0.939335 17.4056 1.1272 16.8627 1.1272H16.6515L16.5309 1.00196C15.807 0.344423 14.9022 0 13.937 0C11.8257 0 10.1669 1.81605 10.1669 3.91389C10.1669 4.03914 10.1669 4.22701 10.197 4.35225L10.2875 4.97847L9.65411 4.94716C5.79347 4.82192 2.62653 1.37769 2.11379 0.782779C1.26927 2.34834 1.75185 3.85127 2.2646 4.79061L3.29008 6.54403L1.66137 5.6047C1.69153 6.91977 2.17411 7.95303 3.10911 8.7045L3.92347 9.33072L3.10911 9.67515C3.62185 11.272 4.76798 11.9296 5.6125 12.18L6.72847 12.4932L5.67282 13.2446C3.98379 14.4971 1.8725 14.4031 0.9375 14.3092C2.83766 15.6869 5.09976 16 6.66815 16C7.84444 16 8.71911 15.8748 8.93024 15.7808C17.3754 13.7143 17.7675 5.8865 17.7675 4.32094V4.10176L17.9485 3.97652C18.974 2.97456 19.3962 2.44227 19.6375 2.12916C19.547 2.16047 19.4264 2.22309 19.3057 2.2544L17.5564 2.75538Z" fill="white"/>
</svg>
